<svg width="455" height="454" viewBox="0 0 455 454" fill="none" xmlns="http://www.w3.org/2000/svg">
<path d="M205.27 281C203.72 281 202.945 280.432 202.945 279.295C202.945 278.365 203.617 277.745 204.96 277.435L208.525 276.815C210.695 276.402 212.09 275.833 212.71 275.11C213.433 274.387 213.795 272.94 213.795 270.77V179.63C213.795 177.46 213.433 176.013 212.71 175.29C212.09 174.567 210.695 173.998 208.525 173.585L204.96 172.965C203.617 172.655 202.945 172.035 202.945 171.105C202.945 169.968 203.72 169.4 205.27 169.4H237.665C243.762 169.4 249.135 170.743 253.785 173.43C258.435 176.013 262.052 179.63 264.635 184.28C267.218 188.93 268.51 194.303 268.51 200.4C268.51 206.29 267.218 211.508 264.635 216.055C262.052 220.602 258.487 224.167 253.94 226.75C249.393 229.23 244.123 230.47 238.13 230.47H226.97C225.523 230.47 224.8 231.193 224.8 232.64V270.15C224.8 272.32 225.213 273.818 226.04 274.645C226.867 275.368 228.727 275.988 231.62 276.505L237.355 277.435C238.492 277.642 239.06 278.21 239.06 279.14C239.06 280.38 238.285 281 236.735 281H205.27ZM224.8 218.07C224.8 223.753 228.262 226.595 235.185 226.595C241.902 226.595 247.172 224.218 250.995 219.465C254.922 214.712 256.885 208.202 256.885 199.935C256.885 191.462 254.922 184.9 250.995 180.25C247.068 175.6 241.488 173.275 234.255 173.275C227.952 173.275 224.8 175.342 224.8 179.475V218.07Z" fill="white"/>
<path d="M227.5 397.25C249.907 397.25 272.094 392.846 292.795 384.29C313.497 375.735 332.306 363.194 348.15 347.385C363.994 331.576 376.562 312.808 385.137 292.152C393.712 271.496 398.125 249.358 398.125 227C398.125 204.642 393.712 182.504 385.137 161.848C376.562 141.192 363.994 122.424 348.15 106.615C332.306 90.8059 313.497 78.2654 292.795 69.7095C272.094 61.1536 249.907 56.75 227.5 56.75M227.5 397.25C205.093 397.25 182.906 392.846 162.205 384.29C141.503 375.735 122.694 363.194 106.85 347.385C91.0059 331.576 78.4378 312.808 69.8631 292.152C61.2883 271.496 56.875 249.358 56.875 227C56.875 204.642 61.2883 182.504 69.8631 161.848C78.4378 141.192 91.0059 122.424 106.85 106.615C122.694 90.8059 141.503 78.2654 162.205 69.7095C182.906 61.1536 205.093 56.75 227.5 56.75M227.5 397.25C279.844 397.25 302.215 299.583 302.215 227C302.215 154.417 279.844 56.75 227.5 56.75M227.5 397.25C175.156 397.25 152.785 299.583 152.785 227C152.785 154.417 175.156 56.75 227.5 56.75M66.3542 170.25H388.646M66.3542 283.75H388.646" stroke="white" stroke-width="10" stroke-linecap="round" stroke-linejoin="round"/>
</svg>
